<svg xmlns="http://www.w3.org/2000/svg" viewBox="6.4687 0 90 90">
  <path d="M 86.4213 0 H 17.0773 C 11.2296 0 6.4687 4.7609 6.4687 10.6604 v 69.965 c 0 5.8994 4.7609 10.6604 10.6086 10.6604 h 68.8201 l 5.8218 -2.6198 l 3.823 -3.0209 l 0.8021 -3.0209 L 97.0299 77.6239 V 10.6604 C 97.0299 4.7609 92.269 0 86.4213 0 z m -19.9752 67.5846 s -1.863 -2.2252 -3.4155 -4.1917 c 6.7792 -1.9147 9.3666 -6.1582 9.3666 -6.1582 c -2.1217 1.3972 -4.1399 2.3805 -5.9512 3.0532 c -2.5875 1.0867 -5.0714 1.8112 -7.5036 2.2252 a 36.2504 36.2504 90 0 1 -13.4031 -0.0517 a 43.4435 43.4435 90 0 1 -7.6071 -2.2252 a 30.3251 30.3251 90 0 1 -3.7777 -1.7595 c -0.1552 -0.1035 -0.3105 -0.1552 -0.4657 -0.2587 c -0.1035 -0.0517 -0.1552 -0.1035 -0.207 -0.1552 c -0.9315 -0.5175 -1.449 -0.8797 -1.449 -0.8797 s 2.484 4.1399 9.0561 6.1064 c -1.5525 1.9665 -3.4672 4.2952 -3.4672 4.2952 c -11.4366 -0.3622 -15.7835 -7.8659 -15.7835 -7.8659 c 0 -16.6633 7.4519 -30.1698 7.4519 -30.1698 c 7.4519 -5.5889 14.5415 -5.4337 14.5415 -5.4337 l 0.5175 0.621 c -9.3149 2.691 -13.6101 6.7792 -13.6101 6.7792 s 1.1385 -0.621 3.0532 -1.5007 c 5.5372 -2.4322 9.9359 -3.105 11.7471 -3.2602 c 0.3105 -0.0517 0.5692 -0.1035 0.8797 -0.1035 a 42.1821 42.1821 90 0 1 26.0299 4.8644 s -4.0882 -3.8812 -12.8856 -6.5722 l 0.7245 -0.828 s 7.0897 -0.1552 14.5415 5.4337 c 0 0 7.4519 13.5066 7.4519 30.1698 c 0 0 -4.3987 7.5036 -15.8353 7.8659 z M 42.3827 43.4176 c -2.9497 0 -5.2784 2.5875 -5.2784 5.7442 s 2.3805 5.7442 5.2784 5.7442 c 2.9497 0 5.2784 -2.5875 5.2784 -5.7442 c 0.0517 -3.1567 -2.3287 -5.7442 -5.2784 -5.7442 z m 18.8885 0 c -2.9497 0 -5.2784 2.5875 -5.2784 5.7442 s 2.3805 5.7442 5.2784 5.7442 c 2.9497 0 5.2784 -2.5875 5.2784 -5.7442 s -2.3287 -5.7442 -5.2784 -5.7442 z" fill="#333"/>
</svg>