<?xml version="1.0" encoding="UTF-8" standalone="no"?>
<svg
   xmlns:dc="http://purl.org/dc/elements/1.1/"
   xmlns:cc="http://creativecommons.org/ns#"
   xmlns:rdf="http://www.w3.org/1999/02/22-rdf-syntax-ns#"
   xmlns:svg="http://www.w3.org/2000/svg"
   xmlns="http://www.w3.org/2000/svg"
   xmlns:sodipodi="http://sodipodi.sourceforge.net/DTD/sodipodi-0.dtd"
   xmlns:inkscape="http://www.inkscape.org/namespaces/inkscape"
   viewBox="6.4687 0 90 90"
   version="1.1"
   id="svg4"
   sodipodi:docname="twitter_2.svg"
   inkscape:version="1.0.1 (3bc2e813f5, 2020-09-07)">
  <metadata
     id="metadata10">
    <rdf:RDF>
      <cc:Work
         rdf:about="">
        <dc:format>image/svg+xml</dc:format>
        <dc:type
           rdf:resource="http://purl.org/dc/dcmitype/StillImage" />
        <dc:title></dc:title>
      </cc:Work>
    </rdf:RDF>
  </metadata>
  <defs
     id="defs8" />
  <sodipodi:namedview
     pagecolor="#ffffff"
     bordercolor="#666666"
     borderopacity="1"
     objecttolerance="10"
     gridtolerance="10"
     guidetolerance="10"
     inkscape:pageopacity="0"
     inkscape:pageshadow="2"
     inkscape:window-width="1366"
     inkscape:window-height="700"
     id="namedview6"
     showgrid="false"
     inkscape:zoom="4.2269272"
     inkscape:cx="50.924685"
     inkscape:cy="46.24726"
     inkscape:window-x="0"
     inkscape:window-y="0"
     inkscape:window-maximized="1"
     inkscape:current-layer="svg4" />
  <path
     id="path2"
     d="M 10.609375 0 C 4.761675 0 -1.1842379e-15 4.7606563 0 10.660156 L 0 80.625 C 0 86.5244 4.761675 91.285156 10.609375 91.285156 L 79.427734 91.285156 L 85.25 88.666016 L 89.074219 85.644531 L 89.875 82.625 L 90.560547 77.623047 L 90.560547 10.660156 C 90.560547 4.7606563 85.800825 0 79.953125 0 L 10.609375 0 z M 57.908203 17.960938 A 13.144 13.144 0 0 1 67.421875 22.107422 A 26.132 26.132 0 0 0 75.771484 18.935547 A 13.204 13.204 0 0 1 69.982422 26.203125 A 26.632 26.632 0 0 0 77.539062 24.130859 A 26.74 26.74 0 0 1 70.982422 30.939453 C 71.006422 31.499453 71.005859 32.066953 71.005859 32.626953 C 71.005859 49.950953 57.794577 69.962891 33.642578 69.962891 A 37.376 37.376 0 0 1 13.539062 64.103516 A 25.28 25.28 0 0 0 16.658203 64.283203 A 26.352 26.352 0 0 0 32.978516 58.654297 A 13.132 13.132 0 0 1 20.710938 49.546875 A 12.92 12.92 0 0 0 23.166016 49.775391 A 12.812 12.812 0 0 0 26.626953 49.314453 A 13.152 13.152 0 0 1 16.099609 36.443359 L 16.099609 36.263672 A 13.292 13.292 0 0 0 22.042969 37.894531 A 13.156 13.156 0 0 1 17.970703 20.367188 A 37.3 37.3 0 0 0 45.039062 34.082031 A 13.144 13.144 0 0 1 57.908203 17.960938 z "
     transform="translate(6.4687)"
     style="fill:#333333;fill-opacity:1" />
</svg>
